Coordinates
version=1
nRows=12
nColumns=24
inDegrees=yes

Units are S.I. units (second, meters, Newtons, ...)
Angles are in degrees.

endheader
time	pelvis_tilt	pelvis_list	pelvis_rotation	pelvis_tx	pelvis_ty	pelvis_tz	hip_flexion_r	hip_adduction_r	hip_rotation_r	knee_angle_r	ankle_angle_r	subtalar_angle_r	mtp_angle_r	hip_flexion_l	hip_adduction_l	hip_rotation_l	knee_angle_l	ankle_angle_l	subtalar_angle_l	mtp_angle_l	lumbar_extension	lumbar_bending	lumbar_rotation
      3.41000000	    -12.71695945	     10.12733668	     -4.59899709	     -0.90801845	     -0.04123075	     -0.30208670	     14.64561723	    -13.84718537	     -5.45785707	    -58.16477508	    -26.94660892	    -17.74125343	     15.26786736	     32.09723413	      9.61656727	     -5.28578911	    -22.83733365	     -3.12840759	    -16.42062069	     -2.97995212	      8.82995029	     -9.72704492	      4.90963639
      3.41500000	    -12.67220364	     10.09428157	     -4.63317986	     -0.90044225	     -0.03971782	     -0.30228902	     15.71609079	    -13.71665070	     -5.14497170	    -59.32320444	    -25.92563478	    -18.35154693	     15.20530989	     31.33346775	      9.67354173	     -5.27842806	    -22.46026514	     -2.72947499	    -16.24623674	     -2.72665770	      8.75471612	     -9.66372679	      4.79650633
      3.42000000	    -12.61775946	      9.99935623	     -4.65662904	     -0.89287817	     -0.03813728	     -0.30251162	     16.74048793	    -13.52356087	     -4.88870248	    -60.34556301	    -24.84311979	    -18.76086810	     15.20815140	     30.54454607	      9.68347600	     -5.19792001	    -22.07101389	     -2.35919940	    -16.09750076	     -2.48483970	      8.66137789	     -9.53338204	      4.65560964
      3.42500000	    -12.55808222	      9.84781656	     -4.68171737	     -0.88535652	     -0.03651019	     -0.30273790	     17.73398919	    -13.27253436	     -4.68117288	    -61.23915241	    -23.76156511	    -19.01162145	     15.29926860	     29.74529522	      9.64232986	     -5.06768140	    -21.67946055	     -2.02600060	    -15.99265144	     -2.28359319	      8.55397146	     -9.33989466	      4.50021495
      3.43000000	    -12.50367753	      9.65878167	     -4.70323003	     -0.87787224	     -0.03487814	     -0.30296442	     18.71162840	    -12.98772210	     -4.51918566	    -62.01716932	    -22.68502877	    -19.09382107	     15.47654667	     28.95145037	      9.56619456	     -4.90469389	    -21.28977855	     -1.71853002	    -15.91374783	     -2.11785397	      8.44735924	     -9.10499720	      4.33351269
      3.43500000	    -12.45777208	      9.42211489	     -4.72311951	     -0.87035697	     -0.03323649	     -0.30319880	     19.66411882	    -12.65495362	     -4.39852742	    -62.66592362	    -21.66767096	    -19.04216315	     15.72299700	     28.15034446	      9.44880690	     -4.68229029	    -20.88379004	     -1.41581467	    -15.88424449	     -2.00282308	      8.35833453	     -8.81392079	      4.15789964
      3.44000000	    -12.42020253	      9.16727591	     -4.71712726	     -0.86297426	     -0.03164407	     -0.30346895	     20.61083658	    -12.32182720	     -4.33056231	    -63.22876758	    -20.59787533	    -18.78528900	     16.06547715	     27.38205163	      9.32022905	     -4.43916075	    -20.50627403	     -1.16184125	    -15.86513861	     -1.92388666	      8.25373264	     -8.50730987	      3.95112675
      3.44500000	    -12.39158429	      8.92755627	     -4.67812023	     -0.85559700	     -0.03012445	     -0.30377503	     21.54440509	    -12.03006251	     -4.31688641	    -63.70087468	    -19.52160521	    -18.39695736	     16.53658381	     26.62094279	      9.22459877	     -4.12257576	    -20.12238256	     -0.93601679	    -15.88999440	     -1.89670021	      8.15645927	     -8.22238597	      3.73677816
      3.45000000	    -12.36447710	      8.65879768	     -4.64842803	     -0.84823563	     -0.02858419	     -0.30409614	     22.45225585	    -11.70164545	     -4.29929317	    -64.04557247	    -18.56332931	    -17.94077096	     17.26453404	     25.84064957	      9.10351335	     -3.75224017	    -19.69704713	     -0.76232235	    -16.00926253	     -2.01249408	      8.06744955	     -7.89436476	      3.51103026
      3.45500000	    -12.34372509	      8.31690398	     -4.53601380	     -0.84094713	     -0.02711590	     -0.30449314	     23.30507424	    -11.33794706	     -4.43778828	    -64.28118913	    -17.58933069	    -17.48346417	     17.84303401	     25.09464828	      8.92816890	     -3.34889521	    -19.33804952	     -0.50118924	    -16.03151637	     -2.08224781	      7.95472632	     -7.50862285	      3.22923686
      3.46000000	    -12.32467602	      7.96842271	     -4.42526025	     -0.83370302	     -0.02564744	     -0.30484698	     24.13835847	    -10.95802571	     -4.56917891	    -64.41375338	    -16.63590218	    -16.96641387	     18.42832911	     24.34203183	      8.73663731	     -2.95186561	    -18.94679553	     -0.32271222	    -16.10095464	     -2.20612385	      7.84180395	     -7.11717894	      2.92342425
      3.46500000	    -12.29507934	      7.65137589	     -4.27821637	     -0.82642765	     -0.02426986	     -0.30532336	     24.93729694	    -10.65922572	     -4.76030777	    -64.46350748	    -15.68834844	    -16.39848664	     19.16119348	     23.56176508	      8.59933119	     -2.49290411	    -18.52440209	     -0.09949904	    -16.18839305	     -2.39271055	      7.72667264	     -6.75735436	      2.62299281
